<svg xmlns="http://www.w3.org/2000/svg" enable-background="new 0 0 64 64" viewBox="0 0 64 64" id="feelings"><path d="M15.44,34.69c-3.68-6.23-3.32-11.6-1.13-15.21c-3.79-3.62-8.15-3.29-10.89-1.25c-3.47,2.58-5.12,8.34-0.96,15.38
		c0.04,0.06,4.55,7.26,14.79,13.67c2.03-1.28,3.96-2.65,5.77-4.12C17.91,38.64,15.58,34.9,15.44,34.69z"></path><path d="M46.79,33.6c4.4-7.43,2.31-13.37-1.5-15.73c-3.31-2.08-8.63-1.65-12.43,4.15c-0.38,0.59-1.35,0.59-1.73,0
		c-2.48-3.8-5.62-5.29-8.41-5.29c-1.48,0-2.87,0.41-4.02,1.14c-3.81,2.36-5.89,8.3-1.49,15.75c0.03,0.05,4.53,7.26,14.78,13.65
		C42.25,40.88,46.75,33.68,46.79,33.6z"></path><path d="M60.57,18.23c-2.75-2.04-7.1-2.37-10.88,1.26c2.19,3.6,2.54,8.97-1.13,15.18c-0.14,0.24-2.48,3.97-7.59,8.5
		c1.81,1.47,3.74,2.85,5.75,4.12c10.29-6.42,14.76-13.61,14.8-13.68C65.69,26.57,64.05,20.81,60.57,18.23z"></path></svg>